<?xml version="1.0" encoding="utf-8"?>
<!-- Generator: Adobe Illustrator 27.8.0, SVG Export Plug-In . SVG Version: 6.00 Build 0)  -->
<svg version="1.0" id="svg1" xmlns="http://www.w3.org/2000/svg" xmlns:xlink="http://www.w3.org/1999/xlink" x="0px" y="0px"
	 viewBox="0 0 880 599.53" style="enable-background:new 0 0 880 599.53;" xml:space="preserve">
<style type="text/css">
	.st0{fill:#0766FF;}
</style>
<path id="path46" class="st0" d="M732.28,366.28h25.62v-41.45l35.75,41.45H825l-41.62-47.77l35.55-41.42H790.4l-32.51,38.18v-84.29
	l-25.62,3.36V366.28z M673.19,274.79c-28.44,0-48.2,19.13-48.2,46.87s19.75,46.87,48.2,46.87c28.44,0,48.2-19.13,48.2-46.87
	S701.63,274.79,673.19,274.79z M673.19,346.69c-13.18,0-22.21-10.19-22.21-25.03s9.03-25.03,22.21-25.03
	c13.18,0,22.21,10.19,22.21,25.03S686.37,346.69,673.19,346.69z M569.07,274.79c-28.44,0-48.2,19.13-48.2,46.87
	s19.75,46.87,48.2,46.87c28.44,0,48.2-19.13,48.2-46.87S597.51,274.79,569.07,274.79z M569.07,346.69
	c-13.18,0-22.21-10.19-22.21-25.03s9.03-25.03,22.21-25.03c13.18,0,22.21,10.19,22.21,25.03S582.24,346.69,569.07,346.69z
	 M471.01,274.79c-11.85,0-21.67,4.66-27.82,13.18v-57l-25.65,3.33v131.95h22.74l0.45-13.77c6.07,10.27,16.93,16.06,30.28,16.06
	c24.32,0,42.13-19.75,42.13-46.87C513.14,294.55,495.42,274.79,471.01,274.79L471.01,274.79z M464.94,346.69
	c-13.18,0-22.21-10.19-22.21-25.03s9.03-25.03,22.21-25.03c13.18,0,22.21,10.19,22.21,25.03S478.12,346.69,464.94,346.69z
	 M366.18,347.85c-13.6,0-23.36-6.32-26.69-17.21h63.12c0.62-3.33,1.04-7.28,1.04-9.93c0-28.7-16.06-45.91-43.03-45.91
	c-27.23,0-46.08,19.13-46.08,46.87c0,28.1,19.75,46.87,49.07,46.87c15.18,0,29.94-5.08,39.17-13.52l-9.23-16.25
	C384.61,344.94,375.83,347.85,366.18,347.85z M360.45,294.72c11.85,0,19.41,7.2,19.41,18.34v0.09h-40.92
	C341.41,301.32,349.05,294.72,360.45,294.72z M274.42,368.56c13.26,0,26.24-5.08,35.38-13.88l-10.02-16.85
	c-7.11,5.53-15.18,8.52-22.83,8.52c-14.22,0-23.7-9.93-23.7-24.66c0-14.73,9.48-24.66,23.7-24.66c7.03,0,14.67,2.54,20.88,7.03
	l10.19-17.21c-8.24-7.45-20.99-12.02-33.64-12.02c-27.82,0-47.49,19.41-47.49,46.87C226.93,349.06,246.6,368.56,274.42,368.56
	L274.42,368.56z M192.96,277.08l-0.45,13.88c-6.07-10.36-16.93-16.14-30.28-16.14c-24.41,0-42.13,19.75-42.13,46.87
	c0,27.12,17.83,46.87,42.13,46.87c13.35,0,24.24-5.78,30.28-16.06l0.45,13.77h22.74v-89.2H192.96z M168.29,346.69
	c-13.18,0-22.21-10.19-22.21-25.03c0-14.84,9.03-25.03,22.21-25.03c13.18,0,22.21,10.19,22.21,25.03
	C190.5,336.51,181.44,346.69,168.29,346.69z M118.18,277.25H95.13v-7.62c0-11.4,4.46-15.77,16.03-15.77c3.58,0,6.49,0.08,8.15,0.25
	v-19.55c-3.16-0.88-10.86-1.75-15.32-1.75c-23.56,0-34.43,11.12-34.43,35.13v9.28H55v21.56h14.56v67.47h25.59V298.8h19.08
	L118.18,277.25z"/>
</svg>
