<?xml version="1.0" encoding="UTF-8"?>
<svg version="1.1" viewBox="0 0 2048 560" width="1280" height="1280" xmlns="http://www.w3.org/2000/svg">
<path transform="translate(648,83)" d="m0 0h14l37 3 19 4 29 10 12 6 17 11 11 10 8 7 12 13 11 15 13 24 6 18 3 17-5 1-103-1-6-12-8-11-9-8-10-6-16-5-13-2h-20l-17 3-16 7-11 9-8 8-7 11-5 10-3 16h-2l-3 14v34l2 12 2 5 2-4 2 21h2l6 11v2h2l7 8 9 9 10 6 15 5 13 3h25l16-4 16-8 10-9 6-7 4-7 2-5 4-5h106v8l-3 14-8 20-8 14-10 14-12 14-4 5-8 7-12 10-19 11h-2v2l-24 10-15 5-25 3-25 1-25-1-23-3-18-4-9-4-16-7-21-12-11-9-10-9-4-3v-2h-2l-6-7v-2h-2l-11-15-9-15-11-24-5-17-2-5-4-37v-24l3-33 2-8 3-7 4-15 12-24 8-12 10-13 9-10 12-12 13-10 22-13 22-10 3-2v-1l30-4 18-2z" fill="#FDFDFD"/>
<path transform="translate(1030,76)" d="m0 0h73l21 1 1 13v209l39 1 4 1 1 9 1 80-1 1h-17l-27-1-1 69h-99l-1-5-1-59-1-5h-168v-76l2-7 12-16 12-17 11-16 11-15 9-13 16-23 10-15 8-11 15-22 10-13 8-12 10-14 8-12 10-14 6-9 3-5 3-3zm-3 130-9 14-15 23-19 28-9 14-5 8-2 13 41 1h22l1-39v-43l-1-15-2-4z" fill="#FDFDFD"/>
<path transform="translate(1227,84)" d="m0 0h37l166 1 1 7v76h-28l-37-1h-43l-22 1v50l-1 12h116v78l-7 1h-109l1 16v51h130v82l-1 1h-235l-1-1-1-36v-301l1-30 2-5 3-1z" fill="#FDFDFD"/>
<path transform="translate(1227,84)" d="m0 0h37l166 1 1 7v76h-28l-37-1h-43l-22 1v50l-1 12h116v78l-7 1h-109l1 16v51h130v82l-1 1h-235l-1-1-1-36v-301l1-30 2-5 3-1zm-13 11-7 3-2 3v347l4 3h211l2-1 1-59-1-5-2-1-123-1-7-1-1-6v-66l2-5 5-4 12-1 95-1 3-1 1-2v-57l-1-1-110-1-5-2-2-5v-61l3-7 2-1 115-1 12-1 2-4v-51l-2-9-3-1z" fill="#898C8B"/>
<path transform="translate(648,83)" d="m0 0h14l37 3 19 4 29 10 12 6 17 11 11 10 8 7 12 13 11 15 13 24 6 18 3 17-5 1-103-1-6-12-8-11-9-8-10-6-16-5-13-2h-20l-17 3-16 7-11 9-8 8-7 11-5 10-3 16h-2l-3 14v34l2 12 2 5 2-4 2 21h2l6 11v2h2l7 8 9 9 10 6 15 5 13 3h25l16-4 16-8 10-9 6-7 4-7 2-5 4-5h106v8l-3 14-8 20-8 14-10 14-12 14-4 5-8 7-12 10-19 11h-2v2l-24 10-15 5-25 3-25 1-25-1-23-3-18-4-9-4-16-7-21-12-11-9-10-9-4-3v-2h-2l-6-7v-2h-2l-11-15-9-15-11-24-5-17-2-5-4-37v-24l3-33 2-8 3-7 4-15 12-24 8-12 10-13 9-10 12-12 13-10 22-13 22-10 3-2v-1l30-4 18-2zm-12 10-12 1-14 5-14 3-9 5-9 3-8 5-6 3-5 4-9 6-9 7-8 7-7 8-7 9-6 9-3 3-4 9-4 6-3 10-4 7-5 20-3 6-1 6-1 25v28l1 21 2 9 4 11 3 14 6 12 3 7 4 6 3 6 4 5 6 9 8 10 13 13 15 11 6 4 13 7 5 3 10 4 6 3 18 4 10 4 21 1h34l23-1 10-5 17-3 8-5 10-3 7-5 7-3 6-5 7-4 4-4 5-4 13-13 7-9 5-8 6-8 4-9 4-7 3-10 3-3 1-3v-7l-3-2h-83l-5 2-6 7-5 8-5 6-10 8-9 6-10 4-11 4h-42l-9-2-7-4-9-3-5-4-8-6-8-7-7-9-4-6-7-14-3-12-4-10-1-16v-15l1-19 2-9 3-6 3-12 9-16 10-13 11-9 6-4 4-3 12-4 4-3 14-2h21l18 2 10 5 9 3 6 5 5 3 5 5h2l2 5 5 4 4 8 6 5 19 1h59l10-1 1-1-1-9-5-8-3-10-5-9-4-7-5-8-12-15h-2l-2-5-10-9-9-7-9-6-4-3-16-8-9-4-7-3-18-4-8-3-10-1z" fill="#898C8B"/>
<path transform="translate(1030,76)" d="m0 0h73l21 1 1 13v209l39 1 4 1 1 9 1 80-1 1h-17l-27-1-1 69h-99l-1-5-1-59-1-5h-168v-76l2-7 12-16 12-17 11-16 11-15 9-13 16-23 10-15 8-11 15-22 10-13 8-12 10-14 8-12 10-14 6-9 3-5 3-3zm-4 10-6 4-7 10-8 11-5 8-6 7-3 6-4 4-5 8-4 6-2 4-5 5-3 6-5 6-2 6-4 2-5 8-4 5-3 6-5 5-3 6-4 4-3 6v2l-4 2-3 6v2l-4 2-5 9-5 6-4 6-3 3-3 6-5 6-3 6-5 5-3 6-6 8-7 10-6 8-2 9v17l1 42 3 3 164 1 2 6 1 59 2 2h79l2-2 1-56 2-7 7-2 32-1 3-3v-62l-2-3-4-1-29-1-6-3-3-4-1-218-2-2z" fill="#898C8B"/>
<path transform="translate(1505,354)" d="m0 0h19l12 3 14 10 5 4 8 11 4 8 2 7v26l-8 16-7 8-18 12-20 4 1 2-13-1v-1l-16-4-14-7-9-8-8-12-3-14v-18l2-12 4-7 12-13 10-7 9-5z" fill="#FDFDFD"/>
<path transform="translate(1505,354)" d="m0 0h19l12 3 14 10 5 4 8 11 4 8 2 7v26l-8 16-7 8-18 12-20 4 1 2-13-1v-1l-16-4-14-7-9-8-8-12-3-14v-18l2-12 4-7 12-13 10-7 9-5zm0 9-23 8-10 9-7 10-2 9v18l2 11 8 11 7 6 9 6 6 1h33l8-2 4-4 6-3 4-5 4-4 4-8 3-5v-23l-6-10-3-6-8-8-6-4-12-4-8-3z" fill="#898C8B"/>
<path transform="translate(1034,184)" d="m0 0 4 1 2 5v117l-2 5-3 2h-77l-4-4v-9l6-7 4-8 4-5 4-6 3-3 5-10 4-5 3-5 4-5 5-8 3-4 3-6 4-5 6-9 6-10 6-9 9-11zm-7 22-9 14-15 23-19 28-9 14-5 8-2 13 41 1h22l1-39v-43l-1-15-2-4z" fill="#898C8B"/>
<path transform="translate(1358,310)" d="m0 0h46l6 1-2 2h-62l-8-1v-1z" fill="#A7A9A9"/>
<path transform="translate(1129,257)" d="m0 0h1l1 12v29h-1l-1-7z" fill="#FDFDFD"/>
<path transform="translate(1391,310)" d="m0 0h13l6 1-2 2h-15z" fill="#D2D3D3"/>
<path transform="translate(719,89)" d="m0 0 9 1 6 2v1l-9-1-6-2z" fill="#C3C4C4"/>
<path transform="translate(734,93)" d="m0 0h5v1h-5z" fill="#FDFDFD"/>
<path transform="translate(716,88)" d="m0 0 3 1z" fill="#FDFDFD"/>
<path transform="translate(1023,217)" d="m0 0" fill="#FDFDFD"/>
<path transform="translate(595,91)" d="m0 0 2 1z" fill="#FDFDFD"/>
<path transform="translate(1022,219)" d="m0 0" fill="#898C8B"/>
</svg>
