<?xml version="1.0" encoding="UTF-8" standalone="no"?>
<svg xmlns="http://www.w3.org/2000/svg" xml:space="preserve" width="189.2" height="41.900002" viewBox="-239 111 189.2 41.900002">
  <path d="M-197.2 149.9999926c-2.3 0-4.1-.5-5.6-2l1.3-1.3c1.1 1.1 2.6 1.6 4.3 1.6 2.3 0 3.7-.8 3.7-2.4 0-1.2-.7-1.9-2.3-2l-2.3-.2c-2.7-.2-4.1-1.4-4.1-3.7 0-2.5 2.1-4 5-4 2 0 3.7.5 4.9 1.5l-1.3 1.3c-1-.8-2.2-1.1-3.7-1.1-2 0-3.1.9-3.1 2.3 0 1.2.7 1.9 2.4 2l2.2.2c2.4.2 4 1.1 4 3.7.2 2.6-2.1 4.1-5.4 4.1zm11.7-.2c-2.3 0-3.5-1.6-3.5-3.7v-8.4h-1.7v-1.5h1.7v-4.3h2v4.3h2.9v1.5h-2.9v8.4c0 1.3.6 2 1.9 2h1.1v1.7h-1.5zm11.8 0v-1.3c-1.1 1.1-2.1 1.5-4 1.5s-3-.4-3.9-1.3c-.7-.7-1-1.7-1-2.8 0-2.4 1.7-4 4.7-4h4.1v-1.3c0-2-1-3-3.5-3-1.8 0-2.6.4-3.5 1.6l-1.2-1.2c1.2-1.6 2.6-2 4.8-2 3.7 0 5.5 1.6 5.5 4.6v9.3l-2-.1zm0-6.3h-3.8c-2.1 0-3.1.8-3.1 2.4 0 1.6 1 2.3 3.1 2.3 1.2 0 2.2-.1 3.1-.9.5-.4.7-1.2.7-2.4v-1.4zm9.8 6.5c-3.5 0-6.1-2.3-6.1-7s2.6-7 6.1-7c1.9 0 3.1.5 4.5 2l-1.4 1.3c-1-1.1-1.8-1.5-3.1-1.5s-2.5.5-3.2 1.6c-.6.9-.9 2-.9 3.7 0 1.7.3 2.8.9 3.7.7 1 1.8 1.6 3.2 1.6 1.3 0 2.1-.4 3.1-1.6l1.4 1.3c-1.4 1.4-2.6 1.9-4.5 1.9zm15.5-.2-4.3-7-2.7 3.1v4h-2v-19.9h2v13.3l6.2-7.1h2.5l-4.7 5.2 5.5 8.5-2.5-.1zm13.2-1.5c-.8.9-2.2 1.7-4.3 1.7-2 0-3.4-.8-4.3-1.7-1.2-1.3-1.6-2.9-1.6-5.4 0-2.5.3-4 1.6-5.3.8-.9 2.2-1.7 4.3-1.7 2 0 3.4.8 4.3 1.7 1.2 1.3 1.6 2.9 1.6 5.3 0 2.6-.4 4.1-1.6 5.4zm-2.7-8.7c-.4-.4-.9-.6-1.6-.6-.7 0-1.2.2-1.6.6-.7.7-.8 1.9-.8 3.3s.1 2.6.8 3.4c.4.4.9.6 1.6.6.7 0 1.2-.2 1.6-.6.7-.7.8-1.9.8-3.4 0-1.4 0-2.6-.8-3.3zm12 10.2h-2.7l-5.1-13.7h3.6l2.8 8.5 2.8-8.5h3.6l-5 13.7zm8.3-5.8c0 1.8 1.1 3.1 3 3.1 1.5 0 2.2-.4 3.1-1.3l2.1 2c-1.4 1.4-2.7 2.2-5.2 2.2-3.2 0-6.4-1.5-6.4-7.1 0-4.5 2.4-7 6-7 3.8 0 6 2.8 6 6.6v1.5h-8.6zm4.9-3.8c-.4-.8-1.1-1.4-2.3-1.4-1.2 0-1.9.6-2.3 1.4-.2.5-.3.9-.3 1.5h5.2c0-.6-.1-1-.3-1.5zm12.9-.4c-.5-.5-1-.8-1.8-.8-1.1 0-2.2.8-2.2 2.5v8.3h-3.4v-13.7h3.4v1.3c.7-.8 2-1.5 3.5-1.5 1.3 0 2.3.3 3.2 1.3l-2.7 2.6zm8.3-1.1v11.1h-3.4v-11.1h-1.4v-2.6h1.4v-1.7c0-2 1.2-3.9 4-3.9h2v2.9h-1.3c-.8 0-1.2.4-1.2 1.2v1.5h2.5v2.6h-2.6zm8.1 11.1c-2.8 0-4-2-4-3.9v-15.5h3.4v15.2c0 .8.3 1.2 1.2 1.2h1.3v2.9l-1.9.1zm12.6-1.5c-.8.9-2.2 1.7-4.3 1.7-2 0-3.4-.8-4.3-1.7-1.2-1.3-1.6-2.9-1.6-5.4 0-2.5.3-4 1.6-5.3.8-.9 2.2-1.7 4.3-1.7 2 0 3.4.8 4.3 1.7 1.2 1.3 1.6 2.9 1.6 5.3-.1 2.6-.4 4.1-1.6 5.4zm-2.7-8.7c-.4-.4-.9-.6-1.6-.6-.7 0-1.2.2-1.6.6-.7.7-.8 1.9-.8 3.3s.1 2.6.8 3.4c.4.4.9.6 1.6.6.7 0 1.2-.2 1.6-.6.7-.7.8-1.9.8-3.4 0-1.4-.1-2.6-.8-3.3zm19.6 10.2h-2.8l-2.9-8.6-2.9 8.6h-2.8l-4.2-13.7h3.6l2.2 8.5 2.8-8.5h2.5l2.8 8.5 2.2-8.5h3.6l-4.1 13.7z"/>
  <path fill="#c624ed" d="M-233 143.89999h17v3h-17z"/>
  <path fill="#818185" d="M-210 152.8999926v-17h-3v14h-23v-14h-3v17z"/>
  <path fill="#3f58ef" d="m-216.16460496 142.26517712-16.72944046-1.5442929.27576659-2.98740012 16.72944047 1.5442929z"/>
  <path fill="#4be23b" d="m-215.1 134.9999926-.7 2.9-16.3-4 .7-3z"/>
  <path fill="#f4ea40" d="m-213.4 130.6999926-1.3 2.5-14.7-7.5 1.4-2.5z"/>
  <path fill="#f68a1f" d="m-210.3 127.3999926-2 2.3-13-10.8 2-2.2z"/>
  <path fill="#f41919" d="m-206.9 124.3999926-2.5 1.6-9.5-13.4 2.4-1.6z"/>
</svg>